<svg width="32" height="34" viewBox="0 0 32 34" fill="none" xmlns="http://www.w3.org/2000/svg">
<path d="M26 32L26 11.375M26 7.625V2M6 32L6 21.6875V11.375M6 7.625V2M16 22.625L16 2M16 32L16 26.375M30 9.5C30 9.99728 29.7893 10.4742 29.4142 10.8258C29.0391 11.1775 28.5304 11.375 28 11.375L24 11.375C23.4696 11.375 22.9609 11.1775 22.5858 10.8258C22.2107 10.4742 22 9.99728 22 9.5C22 9.00272 22.2107 8.52581 22.5858 8.17418C22.9609 7.82254 23.4696 7.625 24 7.625L28 7.625C28.5304 7.625 29.0391 7.82254 29.4142 8.17418C29.7893 8.52581 30 9.00272 30 9.5ZM10 9.5C10 9.99728 9.78929 10.4742 9.41421 10.8258C9.03914 11.1775 8.53043 11.375 8 11.375H4C3.46957 11.375 2.96086 11.1775 2.58578 10.8258C2.21071 10.4742 2 9.99728 2 9.5C2 9.00272 2.21071 8.52581 2.58578 8.17418C2.96086 7.82254 3.46957 7.625 4 7.625L8 7.625C8.53043 7.625 9.03914 7.82254 9.41421 8.17418C9.78929 8.52581 10 9.00272 10 9.5ZM20 24.5C20 24.9973 19.7893 25.4742 19.4142 25.8258C19.0391 26.1775 18.5304 26.375 18 26.375H14C13.4696 26.375 12.9609 26.1775 12.5858 25.8258C12.2107 25.4742 12 24.9973 12 24.5C12 24.0027 12.2107 23.5258 12.5858 23.1742C12.9609 22.8225 13.4696 22.625 14 22.625H18C18.5304 22.625 19.0391 22.8225 19.4142 23.1742C19.7893 23.5258 20 24.0027 20 24.5Z" stroke="#2482BF" stroke-width="2.5" stroke-linecap="round" stroke-linejoin="round"/>
</svg>
