<svg width="40" height="21" viewBox="0 0 40 21" fill="none" xmlns="http://www.w3.org/2000/svg">
<path d="M9.67273 15.7605C11.4182 15.7953 13.0364 16.6319 14.1273 18.096C14.7965 18.989 15.6786 19.7159 16.7001 20.2161C17.7216 20.7163 18.8529 20.9754 20 20.9717C22.3455 20.9717 24.5455 19.8911 25.8727 18.0785C26.9636 16.6145 28.5818 15.7779 30.3273 15.743C29.0182 13.6167 23.7818 12.2572 20 12.2572C16.2364 12.2572 10.9818 13.6167 9.67273 15.7605ZM5.45455 15.743C8.47273 15.743 10.9091 13.4075 10.9091 10.5143C10.9091 7.62109 8.47273 5.2856 5.45455 5.2856C2.43636 5.2856 0 7.62109 0 10.5143C0 13.4075 2.43636 15.743 5.45455 15.743ZM34.5455 15.743C37.5636 15.743 40 13.4075 40 10.5143C40 7.62109 37.5636 5.2856 34.5455 5.2856C31.5273 5.2856 29.0909 7.62109 29.0909 10.5143C29.0909 13.4075 31.5273 15.743 34.5455 15.743ZM20 10.5143C23.0182 10.5143 25.4545 8.17882 25.4545 5.2856C25.4545 2.39238 23.0182 0.0568848 20 0.0568848C16.9818 0.0568848 14.5455 2.39238 14.5455 5.2856C14.5455 8.17882 16.9818 10.5143 20 10.5143Z" fill="#F3C449"/>
</svg>
