<svg width="44" height="30" viewBox="0 0 44 30" fill="none" xmlns="http://www.w3.org/2000/svg">
<path d="M44 19.7125C44 20.8 41.8 21.525 39.2333 21.8875C37.5833 18.8063 34.2833 16.45 30.4333 14.8187C30.8 14.275 31.1667 13.9125 31.5333 13.3688H33C38.6833 13.1875 44 16.6313 44 19.7125ZM12.4667 13.1875H11C5.31667 13.1875 0 16.6313 0 19.7125C0 20.8 2.2 21.525 4.76667 21.8875C6.41667 18.8063 9.71667 16.45 13.5667 14.8187L12.4667 13.1875ZM22 15C26.0333 15 29.3333 11.7375 29.3333 7.75C29.3333 3.7625 26.0333 0.5 22 0.5C17.9667 0.5 14.6667 3.7625 14.6667 7.75C14.6667 11.7375 17.9667 15 22 15ZM22 16.8125C14.4833 16.8125 7.33333 21.525 7.33333 25.875C7.33333 29.5 22 29.5 22 29.5C22 29.5 36.6667 29.5 36.6667 25.875C36.6667 21.525 29.5167 16.8125 22 16.8125ZM32.45 11.375H33C36.1167 11.375 38.5 9.01875 38.5 5.9375C38.5 2.85625 36.1167 0.5 33 0.5C32.0833 0.5 31.35 0.68125 30.6167 1.04375C32.0833 2.85625 33 5.2125 33 7.75C33 9.01875 32.8167 10.2875 32.45 11.375ZM11 11.375H11.55C11.1833 10.2875 11 9.01875 11 7.75C11 5.2125 11.9167 2.85625 13.3833 1.04375C12.65 0.68125 11.9167 0.5 11 0.5C7.88333 0.5 5.5 2.85625 5.5 5.9375C5.5 9.01875 7.88333 11.375 11 11.375Z" fill="#29C092"/>
</svg>
