<svg width="34" height="22" viewBox="0 0 34 22" fill="none" xmlns="http://www.w3.org/2000/svg">
<path d="M8.556 21.872C13.361 21.872 16.368 19.361 16.368 15.827C16.368 12.634 13.547 11.022 11.563 10.805C13.671 10.464 16.027 8.852 16.027 6.062C16.027 2.621 13.051 0.512999 8.587 0.512999C5.146 0.512999 2.635 1.877 1.023 3.768L2.883 6.031C4.371 4.512 6.107 3.737 8.246 3.737C10.54 3.737 12.431 4.729 12.431 6.62C12.431 8.511 10.602 9.348 8.153 9.348C7.347 9.348 6.138 9.348 5.797 9.317V12.603C6.107 12.572 7.285 12.541 8.153 12.541C11.129 12.541 12.741 13.44 12.741 15.486C12.741 17.377 11.16 18.648 8.432 18.648C6.231 18.648 4.061 17.687 2.728 16.137L0.744 18.524C2.17 20.384 4.898 21.872 8.556 21.872ZM33.0838 12.076V9.999H27.3488V3.768H25.0548V9.999H19.3198V12.076H25.0548V18.524H27.3488V12.076H33.0838Z" fill="#D92A68"/>
</svg>
